<svg width="330" height="330" viewBox="0 0 330 330" fill="none" xmlns="http://www.w3.org/2000/svg">
<circle cx="165" cy="165" r="165" fill="#1C0152"/>
<rect width="115" height="18" transform="translate(142 77)" fill="#4225F7"/>
<rect width="77" height="18" transform="translate(157 117)" fill="#3532E6"/>
<path d="M154.383 177.977H114.305V247H91.6875V76.375H148.172C167.391 76.375 182.156 80.75 192.469 89.5C202.859 98.25 208.055 110.984 208.055 127.703C208.055 138.328 205.164 147.586 199.383 155.477C193.68 163.367 185.711 169.266 175.477 173.172L215.555 245.594V247H191.414L154.383 177.977ZM114.305 159.578H148.875C160.047 159.578 168.914 156.688 175.477 150.906C182.117 145.125 185.438 137.391 185.438 127.703C185.438 117.156 182.273 109.07 175.945 103.445C169.695 97.8203 160.633 94.9688 148.758 94.8906H114.305V159.578Z" fill="#E27171"/>
</svg>
